<svg xmlns="http://www.w3.org/2000/svg" viewBox="0 0 24 24" fill="none">
  <!-- House shape -->
  <path d="M12 2l10 9h-3v9h-6v-6h-2v6H5v-9H2l10-9z" fill="#2563eb"/>
  <!-- Door -->
  <rect x="10" y="14" width="4" height="6" fill="#ffffff"/>
  <!-- Window -->
  <rect x="6" y="12" width="2.5" height="2.5" fill="#ffffff"/>
  <rect x="15.5" y="12" width="2.5" height="2.5" fill="#ffffff"/>
  <!-- Dollar sign overlay for bill splitting -->
  <circle cx="18" cy="6" r="3" fill="#10b981"/>
  <path d="M17.5 4v1m0 4v1m-1-3.5h2c.28 0 .5.22.5.5s-.22.5-.5.5h-2m0 0h2c.28 0 .5.22.5.5s-.22.5-.5.5h-2" stroke="#ffffff" stroke-width="0.8" fill="none"/>
</svg>